<?xml version="1.0" ?><svg enable-background="new 0 0 512 512" id="Layer_1" version="1.1" viewBox="0 0 512 512" xml:space="preserve" xmlns="http://www.w3.org/2000/svg" xmlns:xlink="http://www.w3.org/1999/xlink"><g><g><linearGradient gradientUnits="userSpaceOnUse" id="SVGID_1_" x1="0.0000038" x2="512" y1="256" y2="256"><stop offset="0" style="stop-color:#A364AB"/><stop offset="1" style="stop-color:#8C3D96"/></linearGradient><circle cx="256" cy="256" fill="url(#SVGID_1_)" r="256"/><linearGradient gradientUnits="userSpaceOnUse" id="SVGID_2_" x1="42.6666679" x2="469.3333435" y1="256.0005188" y2="256.0005188"><stop offset="0" style="stop-color:#8C3D96"/><stop offset="1" style="stop-color:#A364AB"/></linearGradient><path d="M256,469.3338623c-117.6314697,0-213.3333282-95.7023926-213.3333282-213.3333435    c0-117.6314545,95.7018585-213.333313,213.3333282-213.333313c117.6357422,0,213.3333435,95.7018661,213.3333435,213.333313    C469.3333435,373.6314697,373.6357422,469.3338623,256,469.3338623z" fill="url(#SVGID_2_)"/></g><path d="M197.2661285,152.9434662L197.2661285,152.9434662l-4.9998932,3.1146698V374h-24.321167v10h58.6421356v-10   h-24.3209686V253.6255951c52.5956268-24.6661224,105.1929626,32.6234589,157.7886963,2.5930634   c0-34.4255981,0-68.8501282,0-103.2751923C305.7919922,183.9258728,251.5285339,121.9616013,197.2661285,152.9434662z" opacity="0.3"/><path d="M189.2661285,144.9434662L189.2661285,144.9434662l-4.9998932,3.1146698V366h-24.321167v10h58.6421356v-10   h-24.3209686V245.6255951c52.5956268-24.6661224,105.1929626,32.6234589,157.7886963,2.5930786   c0-34.4256134,0-68.8501434,0-103.2752075C297.7919922,175.9258728,243.5285339,113.9616013,189.2661285,144.9434662z" fill="#FFFFFF"/></g></svg>